<svg height="448pt" viewBox="-12 0 448 448" width="448pt" xmlns="http://www.w3.org/2000/svg"><g fill="#bcbec0"><path d="m424 80h-352v-48h352c-10.171875-.050781-19.242188 6.386719-22.558594 16-1.921875 5.160156-1.921875 10.839844 0 16 3.316406 9.613281 12.386719 16.050781 22.558594 16zm0 0"/><path d="m424 304h-352v-48h352c-10.171875-.050781-19.242188 6.386719-22.558594 16-1.921875 5.160156-1.921875 10.839844 0 16 3.316406 9.613281 12.386719 16.050781 22.558594 16zm0 0"/><path d="m400 416h-352v-48h352c-10.171875-.050781-19.242188 6.386719-22.558594 16-1.921875 5.160156-1.921875 10.839844 0 16 3.316406 9.613281 12.386719 16.050781 22.558594 16zm0 0"/><path d="m352 144v48h-352c10.171875.050781 19.242188-6.386719 22.558594-16 1.921875-5.160156 1.921875-10.839844 0-16-3.316406-9.613281-12.386719-16.050781-22.558594-16zm0 0"/></g><path d="m48 416h352v32h-352zm0 0" fill="#5aaae7"/><path d="m56 336h-8v32h352v-32zm0 0" fill="#5aaae7"/><path d="m48 368v-32h-16c-8.835938 0-16 7.164062-16 16v80c0 8.835938 7.164062 16 16 16h16zm0 0" fill="#ff9811"/><path d="m72 336h352v-32h-352zm0 0" fill="#00ddc2"/><path d="m72 224v32h352v-32zm0 0" fill="#00ddc2"/><path d="m72 304v-80h-16c-8.835938 0-16 7.164062-16 16v80c0 8.835938 7.164062 16 16 16h16zm0 0" fill="#ff9811"/><path d="m352 224v-32h-352v32zm0 0" fill="#ff7956"/><path d="m352 112h-352v32h352zm0 0" fill="#ff7956"/><path d="m352 144v80h16c8.835938 0 16-7.164062 16-16v-80c0-8.835938-7.164062-16-16-16h-16zm0 0" fill="#ff9811"/><path d="m72 112h352v-32h-352zm0 0" fill="#ffb655"/><path d="m72 0h352v32h-352zm0 0" fill="#ffb655"/><path d="m72 80v-80h-16c-8.835938 0-16 7.164062-16 16v80c0 8.835938 7.164062 16 16 16h16zm0 0" fill="#ff9811"/><path d="m424 32c-10.171875-.050781-19.242188 6.386719-22.558594 16h-329.441406v-16zm0 0" fill="#a7a9ac"/><path d="m352 144v16h-329.441406c-3.316406-9.613281-12.386719-16.050781-22.558594-16zm0 0" fill="#a7a9ac"/><path d="m424 256c-10.171875-.050781-19.242188 6.386719-22.558594 16h-329.441406v-16zm0 0" fill="#a7a9ac"/><path d="m400 368c-10.171875-.050781-19.242188 6.386719-22.558594 16h-329.441406v-16zm0 0" fill="#a7a9ac"/><path d="m376 392c-.015625 2.734375.472656 5.445312 1.441406 8h-289.441406v-16h289.441406c-.96875 2.554688-1.457031 5.265625-1.441406 8zm0 0" fill="#3e3d42"/><path d="m400 280c-.015625 2.734375.472656 5.445312 1.441406 8h-305.441406v-16h305.441406c-.96875 2.554688-1.457031 5.265625-1.441406 8zm0 0" fill="#3e3d42"/><path d="m312 160v16h-289.441406c1.921875-5.160156 1.921875-10.839844 0-16zm0 0" fill="#3e3d42"/><path d="m400 56c-.015625 2.734375.472656 5.445312 1.441406 8h-289.441406v-16h289.441406c-.96875 2.554688-1.457031 5.265625-1.441406 8zm0 0" fill="#3e3d42"/></svg>